<svg width="642" height="642" viewBox="0 0 642 642" fill="none" xmlns="http://www.w3.org/2000/svg">
<g filter="url(#filter0_d_9_13)">
<g clip-path="url(#clip0_9_13)">
<rect x="1" y="1" width="640" height="640" rx="12" fill="white"/>
<path d="M394.56 31.3C424.1 34.2 455.9 53.18 482.24 69.76C508.56 86.34 532.76 107.28 552.54 130.74C572.34 154.2 589.44 182.1 600.94 210.54C612.46 238.98 619.94 270.8 621.62 301.38C623.32 331.94 619.12 363.78 611.06 393.96C603 424.14 589.96 456.26 573.22 482.46C556.48 508.68 534 531.7 510.62 551.22C487.24 570.76 461.46 588.06 432.94 599.6C404.42 611.14 370.4 618.3 339.54 620.5C308.68 622.72 277.84 620.34 247.74 612.88C217.66 605.42 185.14 592.56 159.04 575.76C132.94 558.98 110.94 536.36 91.18 512.18C71.44 487.98 52 459.24 40.52 430.66C29.06 402.1 24.18 371.52 22.32 340.72C20.48 309.92 21.62 276.2 29.4 245.86C37.16 215.52 52.22 184.68 68.96 158.7C85.68 132.74 106 109.86 129.78 90.08C153.56 70.3 183.1 51.18 211.64 40.02C240.16 28.86 267.3 23.68 300.9 23.16C334.5 22.64 392.28 33.12 413.2 36.94C434.14 40.76 427.86 41.82 426.5 46.1M424.78 41.98C454.32 47.48 485.2 65 509.06 83.54C532.94 102.08 551.18 126.86 567.98 153.24C584.78 179.64 600.92 211.7 609.86 241.84C618.82 271.98 622.92 303.84 621.7 334.08C620.46 364.3 613.22 394.8 602.44 423.18C591.66 451.56 576.24 479.68 557 504.34C537.78 528.98 512.82 553.68 487.04 571.12C461.26 588.54 431.66 600.56 402.32 608.9C373 617.22 341.62 621.88 311.06 621.06C280.48 620.24 247.9 615.04 218.92 603.96C189.94 592.88 162.06 574.06 137.14 554.58C112.24 535.1 86.94 512.2 69.48 487.04C52 461.88 39.88 433.02 32.3 403.66C24.72 374.32 22.8 342.5 23.98 310.94C25.16 279.4 28.78 243.84 39.38 214.34C49.98 184.84 68.64 158.14 87.6 133.94C106.58 109.76 128.06 86.08 153.18 69.2C178.28 52.34 208.74 40.72 238.3 32.74C267.84 24.76 298.98 20.44 330.48 21.34C361.96 22.22 411.3 33.7 427.22 38.12C443.12 42.52 428.38 43.1 425.9 47.76" fill="#626569"/>
<path d="M211.54 42.14C237.48 27.36 275.1 23.92 306.52 21.86C337.96 19.78 370.58 21.84 400.12 29.7C429.66 37.56 457.94 52.1 483.74 69C509.56 85.9 535.36 106.98 554.98 131.06C574.58 155.16 590.16 184.56 601.4 213.56C612.64 242.56 620.52 274.02 622.4 305.04C624.26 336.06 621.12 369.5 612.58 399.64C604.04 429.8 588.44 460.26 571.14 485.92C553.82 511.6 532.54 534.22 508.7 553.68C484.88 573.14 457.1 591.42 428.14 602.7C399.18 613.98 366.04 620 334.94 621.4C303.84 622.82 271.12 619.34 241.56 611.22C211.98 603.08 182.82 589.64 157.52 572.64C132.2 555.62 109.2 533.14 89.68 509.18C70.16 485.22 52.02 457.8 40.42 428.88C28.8 399.96 21.86 366.72 20 335.64C18.14 304.56 21.2 271.98 29.28 242.42C37.36 212.84 51.3 183.76 68.48 158.24C85.66 132.72 106.48 109.38 132.4 89.28C158.32 69.16 206.16 46.22 224.04 37.56C241.9 28.9 238.16 32.42 239.66 37.3M238.18 31.86C265.04 19.28 298.52 19.78 329.54 21.14C360.56 22.48 395.02 29.44 424.32 39.96C453.6 50.46 480.96 64.84 505.28 84.18C529.6 103.5 552.5 129.68 570.2 155.92C587.9 182.16 602.72 212.72 611.46 241.58C620.2 270.44 624.26 298.98 622.66 329.1C621.04 359.22 612.66 393.08 601.78 422.32C590.9 451.58 576.48 479.78 557.38 504.58C538.26 529.36 513.1 553.44 487.1 571.04C461.08 588.66 431.28 602.38 401.32 610.22C371.38 618.08 337.5 619.28 307.36 618.1C277.22 616.92 249.06 613.16 220.5 603.12C191.96 593.08 161.08 577.14 136.08 557.9C111.08 538.64 87.6 513.06 70.46 487.6C53.3 462.16 41.56 434.6 33.18 405.22C24.82 375.84 19.02 342.38 20.26 311.36C21.52 280.34 29.7 248.7 40.7 219.08C51.7 189.48 67.6 158.32 86.26 133.66C104.9 109.02 127.04 88.06 152.58 71.2C178.14 54.34 225.1 37.84 239.54 32.48C253.98 27.14 237.94 34.14 239.24 39.08" fill="#626569"/>
<path d="M211.54 42.14C237.48 27.36 275.1 23.92 306.52 21.86C337.96 19.78 370.58 21.84 400.12 29.7C429.66 37.56 457.94 52.1 483.74 69C509.56 85.9 535.36 106.98 554.98 131.06C574.58 155.16 590.16 184.56 601.4 213.56C612.64 242.56 620.52 274.02 622.4 305.04C624.26 336.06 621.12 369.5 612.58 399.64C604.04 429.8 588.44 460.26 571.14 485.92C553.82 511.6 532.54 534.22 508.7 553.68C484.88 573.14 457.1 591.42 428.14 602.7C399.18 613.98 366.04 620 334.94 621.4C303.84 622.82 271.12 619.34 241.56 611.22C211.98 603.08 182.82 589.64 157.52 572.64C132.2 555.62 109.2 533.14 89.68 509.18C70.16 485.22 52.02 457.8 40.42 428.88C28.8 399.96 21.86 366.72 20 335.64C18.14 304.56 21.2 271.98 29.28 242.42C37.36 212.84 51.3 183.76 68.48 158.24C85.66 132.72 106.48 109.38 132.4 89.28C158.32 69.16 206.16 46.22 224.04 37.56C241.9 28.9 238.16 32.42 239.66 37.3M238.18 31.86C265.04 19.28 298.52 19.78 329.54 21.14C360.56 22.48 395.02 29.44 424.32 39.96C453.6 50.46 480.96 64.84 505.28 84.18C529.6 103.5 552.5 129.68 570.2 155.92C587.9 182.16 602.72 212.72 611.46 241.58C620.2 270.44 624.26 298.98 622.66 329.1C621.04 359.22 612.66 393.08 601.78 422.32C590.9 451.58 576.48 479.78 557.38 504.58C538.26 529.36 513.1 553.44 487.1 571.04C461.08 588.66 431.28 602.38 401.32 610.22C371.38 618.08 337.5 619.28 307.36 618.1C277.22 616.92 249.06 613.16 220.5 603.12C191.96 593.08 161.08 577.14 136.08 557.9C111.08 538.64 87.6 513.06 70.46 487.6C53.3 462.16 41.56 434.6 33.18 405.22C24.82 375.84 19.02 342.38 20.26 311.36C21.52 280.34 29.7 248.7 40.7 219.08C51.7 189.48 67.6 158.32 86.26 133.66C104.9 109.02 127.04 88.06 152.58 71.2C178.14 54.34 225.1 37.84 239.54 32.48C253.98 27.14 237.94 34.14 239.24 39.08" stroke="#1E1E1E" stroke-width="8" stroke-linecap="round"/>
<path d="M353.02 244.373C365.92 248.773 378.58 262.513 386.82 274.493C395.08 286.493 401.9 301.833 402.52 316.333C403.12 330.853 398.08 348.933 390.52 361.533C382.98 374.133 370.52 385.873 357.18 391.953C343.84 398.033 325.04 399.713 310.5 397.993C295.96 396.273 280.88 390.773 269.98 381.613C259.1 372.473 249.42 356.833 245.16 343.073C240.92 329.293 240.72 312.733 244.5 298.993C248.26 285.253 257.34 270.253 267.82 260.633C278.3 251.033 292.76 243.513 307.38 241.293C322 239.073 347.58 245.893 355.58 247.333C363.56 248.773 355.92 248.533 355.3 249.933M324.84 241.033C338.12 240.253 354.9 245.533 366.22 253.393C377.52 261.253 387.02 275.033 392.74 288.193C398.46 301.353 403.08 317.553 400.52 332.373C397.98 347.193 387.62 366.373 377.42 377.133C367.22 387.893 353.06 393.593 339.36 396.933C325.64 400.253 308.28 402.133 295.12 397.153C281.96 392.173 268.92 378.413 260.42 367.033C251.92 355.653 245.76 343.353 244.12 328.893C242.48 314.413 244.46 293.193 250.56 280.193C256.66 267.193 267.98 258.013 280.74 250.913C293.48 243.793 319.72 238.973 327.08 237.573C334.44 236.173 325.54 240.913 324.86 242.453" fill="#6741D9"/>
<path d="M303.72 241.473C316.96 237.213 335.6 239.633 348.7 244.553C361.8 249.453 373.78 259.933 382.28 270.933C390.76 281.953 398.02 296.273 399.66 310.633C401.3 324.973 398.76 343.933 392.12 356.993C385.5 370.033 372.52 381.893 359.86 388.953C347.18 396.033 330.2 400.193 316.08 399.453C301.96 398.713 286.3 393.013 275.12 384.553C263.92 376.073 254.46 361.913 248.96 348.613C243.46 335.313 239.96 318.993 242.08 304.733C244.18 290.473 250.04 274.133 261.62 263.073C273.18 252.013 301.1 242.013 311.54 238.393C321.98 234.753 323.72 239.553 324.22 241.273M290.88 241.533C303.48 235.273 326.28 235.793 340.38 239.153C354.46 242.493 365.72 251.413 375.48 261.693C385.24 271.953 395.78 286.633 398.9 300.753C402.04 314.873 399.06 332.573 394.28 346.353C389.5 360.153 381.44 374.853 370.24 383.493C359.04 392.153 341.46 396.833 327.08 398.253C312.68 399.693 296.18 398.313 283.92 392.113C271.64 385.913 260.22 374.513 253.44 361.073C246.68 347.633 242.92 326.593 243.32 311.453C243.72 296.293 247.58 281.593 255.84 270.193C264.1 258.793 286.86 246.913 292.86 243.053C298.86 239.213 291.76 245.473 291.86 247.073" stroke="#1E1E1E" stroke-width="8" stroke-linecap="round"/>
<path d="M427 102.767C423.523 99.5993 419.787 90.9856 406.189 83.7613C392.59 76.537 369.506 62.6857 345.407 59.4069C321.291 56.1421 286.794 58.9068 261.542 64.1305C236.306 69.3682 212.879 78.1763 193.943 90.8189C175.026 103.462 155.66 131.803 148 140" stroke="#1E1E1E" stroke-width="4" stroke-linecap="round"/>
<path d="M405.583 96.5945C398.34 92.7178 378.419 78.7426 362.104 73.3213C345.766 67.8872 328.192 62.6151 307.622 64.0283C287.038 65.4621 258.791 73.4434 238.638 81.8458C218.488 90.2648 200.089 103.736 186.695 114.496C173.323 125.27 163.073 141.114 158.355 146.426" stroke="#1E1E1E" stroke-width="4" stroke-linecap="round"/>
<path d="M387.763 94.8901C379.533 91.9069 355.061 80.1818 338.356 76.9634C321.647 73.7293 304.334 73.4469 287.54 75.5286C270.766 77.6061 252.135 83.2003 237.633 89.4608C223.11 95.7254 212.231 103.181 200.463 113.104C188.694 123.026 172.585 143.021 167 149" stroke="#1E1E1E" stroke-width="2" stroke-linecap="round"/>
<path d="M323.868 272.222C333.888 272.162 348.388 278.562 356.128 285.962C363.868 293.362 369.108 306.262 370.268 316.582C371.428 326.902 368.868 339.142 363.048 347.822C357.248 356.522 345.528 365.742 335.428 368.702C325.308 371.642 312.008 369.582 302.388 365.522C292.788 361.462 282.448 353.342 277.728 344.322C273.028 335.282 271.688 321.702 274.148 311.342C276.608 300.962 283.928 288.462 292.508 282.082C301.108 275.682 319.988 274.502 325.688 273.022C331.408 271.562 326.948 272.442 326.748 273.242M330.988 272.722C340.788 274.422 353.548 283.522 360.008 291.962C366.488 300.402 369.988 313.022 369.808 323.322C369.608 333.642 365.668 345.882 358.888 353.802C352.108 361.702 339.788 369.382 329.128 370.822C318.468 372.282 303.928 368.202 294.948 362.462C285.948 356.722 278.188 346.342 275.208 336.382C272.228 326.422 273.128 312.442 277.108 302.702C281.088 292.962 290.088 282.722 299.108 277.942C308.128 273.162 325.588 274.742 331.268 274.042C336.968 273.342 333.108 273.102 333.248 273.782" fill="white"/>
<path d="M331.368 273.682C341.248 274.862 353.628 282.322 360.148 290.282C366.648 298.242 370.748 311.082 370.428 321.482C370.128 331.862 365.188 344.782 358.328 352.622C351.468 360.482 339.488 366.782 329.308 368.602C319.128 370.402 306.028 368.542 297.228 363.482C288.428 358.442 279.988 348.122 276.528 338.302C273.088 328.482 273.068 314.502 276.528 304.562C279.988 294.602 287.908 283.742 297.288 278.602C306.668 273.462 326.588 274.202 332.768 273.702C338.948 273.182 334.568 274.802 334.328 275.542M316.468 272.842C325.848 271.102 338.628 274.942 347.548 280.822C356.468 286.702 367.028 298.262 370.008 308.122C372.988 317.982 369.808 330.282 365.408 340.002C360.988 349.702 352.428 361.802 343.528 366.362C334.608 370.942 322.288 370.202 311.948 367.402C301.608 364.602 287.828 357.682 281.448 349.602C275.068 341.522 272.828 329.422 273.668 318.922C274.508 308.422 279.448 294.202 286.488 286.622C293.528 279.062 311.008 275.722 315.908 273.502C320.808 271.282 315.528 272.722 315.908 273.262" stroke="#1E1E1E" stroke-width="2" stroke-linecap="round"/>
<path d="M211.232 548.769C215.144 552.169 219.702 561.778 234.65 569.172C249.598 576.567 275.08 590.935 300.92 593.154C326.778 595.356 363.258 590.009 389.745 582.436C416.213 574.85 440.515 563.296 459.781 547.645C479.028 531.996 497.68 498.374 505.264 488.519" stroke="#1E1E1E" stroke-width="4" stroke-linecap="round"/>
<path d="M222.74 550.277C230.867 554.558 253.333 570.102 271.529 575.975C289.75 581.861 309.33 587.54 331.991 585.553C354.669 583.543 385.583 573.937 407.549 564C429.51 554.045 449.367 538.37 463.791 525.873C478.19 513.362 488.97 495.134 494 489" stroke="#1E1E1E" stroke-width="4" stroke-linecap="round"/>
<path d="M233.665 544.528C242.453 548.487 268.442 563.508 286.419 568.314C304.399 573.138 323.18 574.642 341.515 573.419C359.828 572.199 380.33 567.103 396.383 560.965C412.459 554.825 424.636 547.078 437.902 536.585C451.168 526.091 469.642 504.426 476 498" stroke="#1E1E1E" stroke-width="2" stroke-linecap="round"/>
<path d="M444.053 232.037C444.857 231.948 445.83 231.807 446.973 231.615C448.171 231.406 449.39 231.161 450.628 230.878C451.866 230.596 453.069 230.247 454.236 229.833C455.404 229.418 456.386 228.951 457.184 228.433C458.037 227.897 458.641 227.299 458.995 226.638C459.349 225.977 459.314 225.249 458.888 224.454C457.713 223.825 456.398 223.191 454.943 222.554C453.508 221.88 452.092 221.17 450.696 220.423C449.32 219.638 448.03 218.782 446.825 217.854C445.658 216.945 444.717 215.922 444.003 214.783C443.289 213.645 442.905 212.376 442.851 210.976C442.853 209.56 443.307 208.006 444.211 206.317C445.273 204.333 446.594 202.748 448.175 201.562C449.811 200.359 451.579 199.485 453.477 198.942C455.394 198.361 457.37 198.025 459.405 197.933C461.496 197.823 463.508 197.861 465.441 198.045C466.259 198.814 466.894 199.745 467.349 200.839C467.803 201.932 468.107 203.041 468.262 204.164C467.573 204.834 466.724 205.183 465.717 205.211C464.746 205.259 463.676 205.182 462.508 204.982C461.375 204.801 460.178 204.609 458.917 204.406C457.655 204.203 456.416 204.178 455.2 204.33C454.04 204.466 452.901 204.872 451.782 205.549C450.683 206.19 449.711 207.3 448.865 208.879C448.236 210.055 448.068 211.075 448.36 211.941C448.653 212.807 449.218 213.605 450.055 214.337C450.912 215.032 451.956 215.686 453.188 216.298C454.44 216.873 455.719 217.44 457.027 217.999C458.372 218.577 459.65 219.19 460.863 219.839C462.094 220.452 463.099 221.179 463.878 222.021C464.675 222.826 465.163 223.725 465.34 224.718C465.554 225.73 465.297 226.916 464.57 228.275C464.255 228.863 463.65 229.508 462.754 230.21C461.895 230.932 460.85 231.648 459.618 232.36C458.443 233.054 457.14 233.679 455.707 234.236C454.312 234.812 452.91 235.267 451.503 235.6C450.152 235.917 448.852 236.095 447.601 236.135C446.408 236.157 445.407 235.952 444.599 235.52C443.827 235.107 443.461 234.556 443.498 233.867C443.573 233.198 443.758 232.588 444.053 232.037Z" fill="white"/>
<path d="M390.638 186.095C390.972 185.109 391.39 184.393 391.893 183.947C392.435 183.515 393.259 183.486 394.364 183.86C394.482 183.9 394.693 183.993 394.995 184.14C395.35 184.26 395.567 184.333 395.646 184.36C395.508 185.677 395.33 187.112 395.112 188.666C394.947 190.194 394.814 191.755 394.714 193.348C394.614 194.942 394.561 196.53 394.553 198.111C394.585 199.705 394.763 201.195 395.085 202.58C396.05 202.071 396.863 201.357 397.527 200.438C398.19 199.518 398.774 198.572 399.279 197.6C399.798 196.588 400.277 195.628 400.716 194.721C401.208 193.788 401.785 193.059 402.446 192.535C403.121 191.972 403.926 191.673 404.861 191.638C405.837 191.616 407.021 192.017 408.413 192.84C410.071 193.402 411.286 194.165 412.059 195.131C412.845 196.057 413.433 197.114 413.823 198.301C414.265 199.463 414.641 200.69 414.952 201.983C415.314 203.25 415.888 204.478 416.673 205.667C417.084 205.234 417.594 204.703 418.203 204.074C418.825 203.405 419.533 202.742 420.327 202.087C421.173 201.406 422.033 200.752 422.906 200.123C423.831 199.469 424.743 198.92 425.641 198.476C426.552 197.993 427.437 197.654 428.294 197.461C429.165 197.228 429.936 197.225 430.607 197.452C432.225 198 433.452 198.987 434.289 200.415C435.138 201.802 435.717 203.406 436.025 205.226C436.385 207.019 436.521 208.957 436.432 211.038C436.356 213.08 436.182 215.023 435.91 216.866C435.638 218.71 435.314 220.381 434.938 221.882C434.614 223.356 434.346 224.409 434.132 225.04C433.958 225.553 433.706 225.908 433.376 226.104C433.046 226.3 432.676 226.417 432.268 226.454C431.872 226.453 431.451 226.398 431.003 226.29C430.595 226.196 430.214 226.089 429.859 225.969C429.78 225.942 429.661 225.902 429.503 225.848C429.359 225.755 429.195 225.656 429.011 225.55C428.866 225.457 428.669 225.324 428.42 225.151L430.565 206.148C430.606 206.03 430.521 205.759 430.312 205.337C430.117 204.875 429.954 204.577 429.822 204.445C429.704 204.405 429.612 204.352 429.547 204.286C429.468 204.259 429.408 204.239 429.369 204.225C429.343 204.173 429.31 204.14 429.271 204.126C428.442 203.846 427.539 203.914 426.562 204.331C425.624 204.761 424.666 205.382 423.687 206.195C422.708 207.007 421.729 207.951 420.749 209.027C419.768 210.103 418.847 211.198 417.986 212.314C417.137 213.391 416.355 214.402 415.639 215.347C414.976 216.266 414.452 216.969 414.068 217.454C413.883 217.48 413.541 217.452 413.04 217.37C412.553 217.249 412.231 217.162 412.073 217.109C410.968 216.735 410.247 216.072 409.908 215.122C409.584 214.132 409.418 212.998 409.411 211.72C409.443 210.455 409.548 209.105 409.726 207.67C409.957 206.208 410.069 204.839 410.062 203.561C410.095 202.296 409.902 201.175 409.485 200.198C409.121 199.195 408.347 198.493 407.163 198.092C406.729 197.945 406.168 198.239 405.479 198.973C404.79 199.708 404.061 200.693 403.291 201.927C402.534 203.123 401.757 204.443 400.959 205.889C400.175 207.295 399.458 208.636 398.806 209.911C398.207 211.16 397.714 212.225 397.328 213.106C396.942 213.987 396.749 214.427 396.749 214.427C396.63 214.519 396.425 214.603 396.135 214.681C395.858 214.719 395.555 214.771 395.225 214.835C394.935 214.913 394.638 214.944 394.335 214.929C394.071 214.928 393.88 214.908 393.762 214.867C392.657 214.493 391.759 213.639 391.067 212.305C390.388 210.931 389.882 209.308 389.548 207.436C389.267 205.537 389.099 203.5 389.043 201.326C389.027 199.165 389.097 197.077 389.251 195.062C389.406 193.047 389.599 191.242 389.83 189.649C390.101 188.069 390.37 186.885 390.638 186.095Z" fill="white"/>
<path d="M376.159 202.982C374.434 203.823 372.931 204.591 371.65 205.286C370.415 205.947 369.219 206.486 368.062 206.906C366.906 207.325 365.688 207.587 364.408 207.693C363.171 207.806 361.665 207.731 359.893 207.47C356.059 206.905 353.364 205.475 351.807 203.182C350.256 200.847 349.778 197.66 350.374 193.621C350.605 192.054 351.051 190.456 351.712 188.827C352.374 187.198 353.217 185.617 354.244 184.083C355.317 182.515 356.52 181.071 357.852 179.751C359.19 178.39 360.644 177.235 362.216 176.288C363.788 175.34 365.405 174.652 367.069 174.224C368.78 173.76 370.522 173.659 372.294 173.92C375.22 174.646 377.439 175.731 378.953 177.176C380.473 178.579 381.529 180.272 382.121 182.255C382.719 184.196 383.016 186.325 383.012 188.641C383.013 190.915 382.92 193.26 382.732 195.675C382.586 198.096 382.481 200.524 382.417 202.957C382.353 205.39 382.626 207.684 383.235 209.837C382.498 211.119 381.843 211.991 381.269 212.454C380.731 212.964 380.2 212.991 379.678 212.535C379.156 212.079 378.609 211.072 378.039 209.514C377.509 207.961 376.883 205.784 376.159 202.982ZM355.611 194.519C355.265 196.869 355.442 198.664 356.144 199.905C356.893 201.11 358.401 201.88 360.668 202.214C362.358 202.463 364.008 202.412 365.618 202.06C367.276 201.672 368.758 201.048 370.064 200.188C371.376 199.287 372.492 198.145 373.411 196.765C374.331 195.384 374.924 193.787 375.192 191.973C375.301 191.231 375.474 190.204 375.71 188.891C375.951 187.537 376.066 186.185 376.055 184.835C376.043 183.486 375.819 182.294 375.381 181.261C374.95 180.187 374.157 179.565 373.003 179.394C370.86 179.078 368.799 179.343 366.821 180.189C364.85 180.993 363.08 182.143 361.511 183.639C359.943 185.134 358.636 186.858 357.59 188.809C356.55 190.72 355.891 192.623 355.611 194.519Z" fill="white"/>
<path d="M321.728 203.11C321.721 201.985 322.05 201.233 322.714 200.854C323.379 200.434 324.21 200.179 325.21 200.089C326.251 199.958 327.355 199.889 328.521 199.882C329.688 199.833 330.77 199.619 331.767 199.238C332.807 198.856 333.657 198.226 334.319 197.347C334.98 196.468 335.305 195.112 335.294 193.279C335.263 188.071 334.945 183.697 334.34 180.159C333.778 176.621 332.636 173.815 330.915 171.742C329.236 169.669 326.894 168.266 323.889 167.534C320.927 166.802 317.051 166.638 312.261 167.042C312.136 167.001 311.927 166.856 311.634 166.608C311.382 166.359 311.11 166.09 310.816 165.8C310.523 165.51 310.25 165.241 309.999 164.993C309.789 164.702 309.642 164.495 309.558 164.37C309.516 164.287 309.494 164.204 309.494 164.121C309.451 163.996 309.43 163.85 309.429 163.684C309.428 163.6 309.448 163.496 309.489 163.371C309.489 163.287 309.509 163.204 309.55 163.12C309.674 162.995 309.84 162.848 310.048 162.68C310.297 162.512 310.567 162.364 310.857 162.237C311.19 162.069 311.46 161.942 311.668 161.858C311.917 161.731 312.104 161.667 312.229 161.667C313.02 161.62 314.208 161.551 315.79 161.458C317.415 161.365 319.248 161.27 321.289 161.175C323.33 161.038 325.516 160.899 327.849 160.76C330.223 160.621 332.577 160.503 334.909 160.406C337.284 160.266 339.533 160.169 341.658 160.115C343.824 160.06 345.761 160.028 347.47 160.018C347.478 161.309 347.234 162.311 346.738 163.022C346.242 163.692 345.62 164.216 344.872 164.596C344.166 164.933 343.376 165.188 342.502 165.36C341.669 165.532 340.879 165.766 340.131 166.062C339.424 166.316 338.822 166.736 338.326 167.323C337.829 167.867 337.584 168.681 337.591 169.765C337.604 171.931 337.825 174.034 338.253 176.073C338.724 178.112 339.236 180.151 339.79 182.189C340.344 184.186 340.835 186.204 341.264 188.243C341.735 190.282 341.976 192.343 341.989 194.426C342 196.301 341.594 198.012 340.77 199.559C339.945 201.105 338.849 202.445 337.481 203.578C336.155 204.711 334.639 205.616 332.935 206.293C331.272 206.928 329.607 207.251 327.941 207.261C327.274 207.265 326.565 207.206 325.814 207.086C325.105 206.965 324.437 206.74 323.81 206.41C323.225 206.039 322.722 205.605 322.303 205.107C321.924 204.568 321.733 203.902 321.728 203.11Z" fill="white"/>
<path d="M238.647 191.137C238.613 191.016 238.605 190.91 238.623 190.819C238.6 190.739 238.592 190.633 238.599 190.501C238.703 190.255 238.871 189.927 239.102 189.516C239.333 189.105 239.488 188.889 239.569 188.866L251.666 185.478C251.542 185.036 251.285 184.351 250.895 183.422C250.505 182.493 250.087 181.463 249.64 180.333C249.234 179.192 248.877 177.994 248.569 176.739C248.249 175.444 248.089 174.256 248.089 173.174C248.118 172.041 248.363 171.063 248.826 170.242C249.317 169.368 250.164 168.763 251.368 168.426C252.503 172.478 253.694 175.65 254.941 177.94C256.188 180.23 257.459 181.908 258.753 182.973C260.086 184.028 261.411 184.587 262.727 184.651C264.044 184.715 265.318 184.553 266.55 184.164C267.812 183.724 268.999 183.175 270.113 182.517C271.227 181.859 272.228 181.34 273.117 180.961C274.047 180.571 274.837 180.458 275.489 180.622C276.129 180.745 276.607 181.369 276.921 182.492C277.157 183.335 277.125 183.993 276.825 184.466C276.565 184.929 275.922 185.412 274.895 185.916C274.585 186.046 274.066 186.278 273.337 186.612C272.637 186.894 271.837 187.205 270.937 187.544C270.037 187.882 269.082 188.258 268.072 188.671C267.052 189.043 266.091 189.399 265.191 189.737C264.291 190.076 263.465 190.372 262.714 190.626C261.951 190.84 261.39 190.997 261.029 191.098C261.085 191.299 261.16 191.645 261.255 192.138C261.35 192.631 261.42 192.957 261.465 193.118C261.959 194.883 262.723 196.53 263.757 198.058C264.779 199.545 265.842 201.022 266.945 202.487C268.088 203.941 269.17 205.412 270.193 206.899C271.215 208.387 271.974 210.013 272.468 211.779C272.558 212.1 272.614 212.452 272.635 212.836C272.684 213.168 272.648 213.502 272.526 213.84C272.433 214.125 272.223 214.379 271.896 214.6C271.62 214.851 271.153 214.96 270.495 214.928C268.858 214.954 267.473 214.411 266.339 213.301C265.246 212.179 264.266 210.766 263.399 209.062C262.521 207.317 261.736 205.439 261.042 203.426C260.348 201.414 259.614 199.564 258.839 197.878C258.092 196.139 257.264 194.727 256.354 193.641C255.432 192.514 254.31 191.985 252.988 192.052L240.631 192.658C240.47 192.703 240.185 192.61 239.774 192.379C239.352 192.107 239.078 191.903 238.953 191.765C238.89 191.696 238.842 191.601 238.808 191.481C238.746 191.412 238.692 191.297 238.647 191.137Z" fill="white"/>
<path d="M216.384 221.613C215.347 219.247 214.939 216.81 215.16 214.302C215.364 211.756 216.045 209.365 217.203 207.129C218.383 204.838 219.915 202.78 221.799 200.954C223.721 199.111 225.846 197.679 228.174 196.66C229.472 196.091 230.8 196.009 232.161 196.414C233.559 196.802 234.869 197.457 236.091 198.377C237.296 199.259 238.363 200.293 239.292 201.478C240.259 202.647 240.96 203.727 241.394 204.719C242.331 206.857 242.727 209.162 242.582 211.636C242.421 214.072 241.863 216.432 240.907 218.716C239.935 220.962 238.628 223.013 236.985 224.87C235.342 226.727 233.49 228.107 231.429 229.01C229.597 229.812 227.918 230.184 226.391 230.125C224.847 230.028 223.468 229.632 222.253 228.936C221.022 228.201 219.906 227.212 218.905 225.967C217.927 224.667 217.086 223.216 216.384 221.613ZM221.501 220.054C221.935 221.046 222.396 221.89 222.883 222.587C223.392 223.228 223.973 223.724 224.627 224.074C225.319 224.408 226.094 224.569 226.953 224.556C227.795 224.506 228.751 224.247 229.819 223.778C231.232 223.16 232.476 222.159 233.554 220.778C234.615 219.357 235.44 217.813 236.028 216.145C236.638 214.423 236.969 212.685 237.021 210.934C237.072 209.183 236.797 207.62 236.195 206.247C235.928 205.636 235.578 204.993 235.146 204.318C234.713 203.643 234.23 203.059 233.695 202.565C233.161 202.072 232.553 201.724 231.873 201.521C231.193 201.319 230.471 201.385 229.708 201.719C229.021 202.02 228.301 202.609 227.547 203.484C226.832 204.344 226.118 205.362 225.405 206.538C224.731 207.698 224.098 208.953 223.507 210.304C222.954 211.638 222.478 212.938 222.077 214.206C221.677 215.473 221.413 216.635 221.285 217.692C221.195 218.732 221.266 219.519 221.501 220.054Z" fill="white"/>
<path d="M196.277 243.678C195.686 242.721 195.576 241.907 195.946 241.238C196.295 240.534 196.873 239.883 197.681 239.287C198.501 238.634 199.408 238.001 200.401 237.389C201.372 236.741 202.185 235.995 202.839 235.151C203.529 234.285 203.928 233.304 204.036 232.21C204.144 231.115 203.717 229.787 202.754 228.227C200.02 223.794 197.475 220.224 195.119 217.516C192.799 214.786 190.365 212.982 187.817 212.106C185.305 211.208 182.575 211.227 179.628 212.164C176.716 213.079 173.32 214.953 169.439 217.788C169.31 217.818 169.056 217.804 168.677 217.744C168.333 217.662 167.96 217.574 167.559 217.479C167.157 217.384 166.785 217.296 166.441 217.214C166.11 217.075 165.877 216.974 165.74 216.912C165.661 216.863 165.6 216.803 165.556 216.732C165.455 216.647 165.36 216.534 165.273 216.392C165.229 216.321 165.192 216.222 165.162 216.093C165.118 216.023 165.092 215.941 165.084 215.848C165.125 215.676 165.19 215.464 165.28 215.213C165.405 214.94 165.559 214.674 165.742 214.414C165.938 214.097 166.103 213.849 166.236 213.668C166.384 213.431 166.51 213.279 166.617 213.213C167.269 212.762 168.246 212.086 169.55 211.184C170.89 210.26 172.406 209.226 174.1 208.083C175.772 206.905 177.568 205.65 179.489 204.319C181.444 202.966 183.393 201.641 185.336 200.345C187.291 198.992 189.163 197.74 190.949 196.589C192.771 195.416 194.41 194.381 195.864 193.484C196.542 194.583 196.854 195.566 196.8 196.431C196.725 197.261 196.466 198.032 196.025 198.745C195.597 199.401 195.054 200.029 194.397 200.631C193.775 201.21 193.222 201.821 192.737 202.463C192.265 203.047 191.969 203.719 191.85 204.478C191.709 205.201 191.923 206.024 192.492 206.946C193.629 208.79 194.911 210.472 196.337 211.991C197.799 213.488 199.297 214.963 200.83 216.416C202.341 217.834 203.809 219.303 205.236 220.821C206.698 222.319 207.976 223.954 209.069 225.727C210.054 227.323 210.596 228.995 210.696 230.745C210.796 232.495 210.557 234.209 209.977 235.888C209.433 237.546 208.609 239.107 207.505 240.571C206.414 241.978 205.16 243.119 203.741 243.994C203.174 244.344 202.538 244.663 201.834 244.95C201.166 245.215 200.478 245.37 199.771 245.415C199.078 245.402 198.422 245.292 197.805 245.085C197.202 244.821 196.692 244.352 196.277 243.678Z" fill="white"/>
<path d="M507.181 395.125C507.311 394.698 507.455 394.173 507.614 393.551C507.778 392.897 507.931 392.225 508.074 391.535C508.217 390.845 508.327 390.158 508.404 389.474C508.481 388.79 508.5 388.189 508.461 387.67C508.427 387.118 508.317 386.679 508.132 386.353C507.946 386.027 507.655 385.884 507.258 385.924C506.773 386.38 506.257 386.907 505.711 387.503C505.154 388.082 504.588 388.642 504.011 389.184C503.424 389.708 502.826 390.173 502.218 390.578C501.624 390.968 501.033 391.218 500.443 391.328C499.853 391.438 499.28 391.352 498.723 391.069C498.171 390.754 497.658 390.18 497.184 389.347C496.628 388.369 496.28 387.348 496.141 386.284C496.006 385.188 496.027 384.098 496.203 383.016C496.369 381.915 496.642 380.839 497.022 379.787C497.407 378.702 497.834 377.691 498.301 376.751C498.768 376.507 499.261 376.391 499.78 376.403C500.3 376.415 500.794 376.506 501.264 376.676C501.384 377.174 501.347 377.682 501.151 378.199C500.971 378.702 500.723 379.227 500.406 379.775C500.104 380.309 499.784 380.873 499.447 381.468C499.11 382.063 498.846 382.686 498.657 383.336C498.473 383.954 498.398 384.621 498.433 385.339C498.458 386.038 498.692 386.776 499.135 387.555C499.465 388.135 499.828 388.446 500.226 388.489C500.623 388.533 501.05 388.423 501.507 388.161C501.953 387.881 502.421 387.496 502.912 387.007C503.393 386.5 503.875 385.977 504.361 385.437C504.861 384.884 505.362 384.371 505.863 383.901C506.354 383.412 506.843 383.063 507.33 382.855C507.807 382.629 508.257 382.581 508.681 382.711C509.12 382.827 509.529 383.22 509.911 383.89C510.075 384.18 510.203 384.629 510.294 385.239C510.399 385.834 510.465 386.523 510.49 387.305C510.521 388.054 510.498 388.854 510.422 389.703C510.361 390.539 510.252 391.35 510.094 392.137C509.941 392.892 509.745 393.591 509.505 394.234C509.269 394.844 508.985 395.306 508.651 395.62C508.332 395.919 508.042 395.983 507.781 395.812C507.536 395.626 507.336 395.397 507.181 395.125Z" fill="white"/>
<path d="M505.008 420.126C505.892 419.365 506.581 418.492 507.073 417.506C507.575 416.538 507.89 415.518 508.017 414.445C508.169 413.377 508.15 412.309 507.96 411.242C507.795 410.18 507.477 409.196 507.005 408.29C506.764 407.829 506.423 407.239 505.981 406.523C505.555 405.792 505.071 405.018 504.53 404.199C503.989 403.38 503.398 402.577 502.759 401.789C502.136 400.987 501.502 400.275 500.857 399.653C500.203 399.012 499.551 398.529 498.901 398.205C498.258 397.849 497.656 397.725 497.095 397.833C496.877 398.556 496.653 399.244 496.422 399.898C496.181 400.534 495.901 401.136 495.58 401.707C495.26 402.277 494.904 402.824 494.514 403.347C494.114 403.852 493.653 404.329 493.132 404.777C492.453 405.362 491.831 405.791 491.264 406.065C490.713 406.325 490.181 406.422 489.666 406.356C489.168 406.277 488.69 406.019 488.234 405.582C487.777 405.145 487.323 404.493 486.87 403.624C486.553 403.015 486.371 402.315 486.325 401.525C486.27 400.716 486.317 399.886 486.468 399.033C486.624 398.149 486.852 397.27 487.152 396.397C487.467 395.51 487.82 394.671 488.208 393.881C488.613 393.078 489.041 392.362 489.491 391.734C489.957 391.092 490.403 390.587 490.829 390.22C491.24 389.867 491.589 389.593 491.876 389.399C492.154 389.186 492.422 389.063 492.679 389.029C492.926 388.977 493.18 389.026 493.441 389.176C493.708 389.294 494.016 389.511 494.364 389.827C495.478 390.955 496.705 392.147 498.045 393.402C499.385 394.657 500.726 395.978 502.067 397.367C503.408 398.755 504.683 400.213 505.891 401.742C507.125 403.276 508.175 404.874 509.042 406.537C509.812 408.015 510.281 409.418 510.447 410.747C510.639 412.081 510.611 413.322 510.364 414.472C510.142 415.626 509.752 416.698 509.193 417.688C508.649 418.665 508.031 419.518 507.337 420.249C506.652 420.999 505.948 421.645 505.225 422.188C504.501 422.731 503.844 423.136 503.252 423.405C502.669 423.692 502.191 423.85 501.817 423.877C501.458 423.892 501.304 423.771 501.353 423.514C501.428 423.262 501.743 422.857 502.298 422.299C502.853 421.741 503.757 421.016 505.008 420.126ZM491.403 393.098C490.389 394.4 489.658 395.631 489.211 396.792C488.77 397.921 488.527 398.947 488.481 399.869C488.442 400.759 488.566 401.523 488.852 402.16C489.128 402.778 489.488 403.205 489.93 403.439C490.373 403.674 490.857 403.725 491.383 403.594C491.915 403.43 492.402 403.024 492.842 402.378C493.273 401.712 493.62 400.798 493.883 399.635C494.162 398.458 494.277 396.967 494.228 395.162C494.064 394.848 493.886 394.507 493.694 394.137C493.517 393.754 493.32 393.442 493.103 393.201C492.876 392.941 492.623 392.784 492.343 392.73C492.064 392.677 491.75 392.799 491.403 393.098Z" fill="white"/>
<path d="M473.983 410.651C473.751 410.161 473.693 409.729 473.809 409.355C473.916 408.963 474.207 408.581 474.684 408.209L474.93 408.017C475.122 408.28 475.344 408.583 475.596 408.927C475.849 409.272 476.139 409.6 476.466 409.912C476.793 410.224 477.132 410.488 477.481 410.705C477.822 410.903 478.173 411.003 478.534 411.005C478.239 410.333 478.08 409.593 478.058 408.785C478.044 407.946 478.122 407.137 478.294 406.358C478.473 405.548 478.725 404.797 479.05 404.105C479.383 403.381 479.76 402.777 480.183 402.292L480.725 401.869C481.513 401.254 482.285 400.936 483.039 400.914C483.784 400.874 484.493 401.043 485.166 401.42C485.846 401.766 486.481 402.276 487.07 402.951C487.658 403.626 488.206 404.358 488.714 405.148C489.23 405.906 489.687 406.683 490.086 407.48C490.493 408.246 490.83 408.911 491.097 409.476L489.298 410.88C488.666 409.827 488.031 408.84 487.394 407.919C487.149 407.543 486.878 407.161 486.582 406.773C486.278 406.366 485.983 406.003 485.697 405.685C485.403 405.347 485.118 405.054 484.843 404.805C484.559 404.536 484.285 404.338 484.022 404.208C483.92 404.184 483.781 404.151 483.604 404.109C483.443 404.054 483.274 404.005 483.097 403.963C482.92 403.921 482.759 403.891 482.616 403.874C482.473 403.857 482.394 403.854 482.377 403.867C481.813 404.101 481.44 404.547 481.256 405.206C481.064 405.846 480.975 406.586 480.99 407.425C481.004 408.265 481.108 409.151 481.301 410.083C481.511 411.002 481.732 411.874 481.964 412.698C482.187 413.504 482.403 414.199 482.612 414.784C482.812 415.35 482.93 415.695 482.967 415.821C482.717 416.481 482.38 416.886 481.956 417.036C481.524 417.167 481.036 417.135 480.494 416.939C479.969 416.731 479.414 416.39 478.831 415.917C478.264 415.431 477.696 414.894 477.127 414.308C476.548 413.702 475.986 413.083 475.441 412.452C474.912 411.808 474.426 411.208 473.983 410.651Z" fill="white"/>
<path d="M464.337 422.222C463.828 421.034 463.602 419.759 463.66 418.395C463.709 417.012 463.978 415.673 464.464 414.38C464.96 413.055 465.619 411.827 466.442 410.695C467.281 409.551 468.219 408.612 469.256 407.877C469.834 407.468 470.434 407.317 471.057 407.425C471.697 407.521 472.301 407.767 472.87 408.163C473.43 408.54 473.931 409.009 474.371 409.571C474.828 410.121 475.164 410.644 475.377 411.142C475.837 412.214 476.055 413.42 476.031 414.76C475.999 416.081 475.786 417.393 475.392 418.696C474.989 419.98 474.432 421.186 473.719 422.315C473.006 423.444 472.191 424.334 471.273 424.984C470.457 425.562 469.703 425.897 469.01 425.988C468.31 426.06 467.679 425.958 467.117 425.681C466.547 425.386 466.025 424.945 465.551 424.357C465.086 423.737 464.681 423.026 464.337 422.222ZM466.627 420.973C466.841 421.471 467.064 421.887 467.296 422.222C467.537 422.526 467.808 422.745 468.11 422.881C468.429 423.004 468.783 423.028 469.172 422.953C469.552 422.858 469.98 422.642 470.456 422.305C471.085 421.859 471.632 421.222 472.097 420.393C472.554 419.546 472.901 418.651 473.14 417.708C473.387 416.734 473.507 415.775 473.501 414.83C473.495 413.886 473.344 413.069 473.049 412.38C472.918 412.073 472.748 411.756 472.541 411.429C472.334 411.101 472.106 410.826 471.855 410.604C471.605 410.382 471.324 410.244 471.013 410.19C470.701 410.136 470.376 410.229 470.036 410.47C469.73 410.687 469.413 411.061 469.087 411.592C468.778 412.11 468.471 412.714 468.168 413.403C467.882 414.08 467.617 414.805 467.372 415.578C467.144 416.338 466.95 417.075 466.79 417.787C466.63 418.5 466.53 419.145 466.49 419.723C466.466 420.288 466.512 420.705 466.627 420.973Z" fill="white"/>
<path d="M460.059 430.487C460.256 430.093 460.482 429.606 460.739 429.028C461.005 428.419 461.264 427.791 461.515 427.143C461.766 426.495 461.983 425.845 462.167 425.192C462.35 424.539 462.462 423.956 462.504 423.444C462.554 422.901 462.512 422.455 462.375 422.106C462.239 421.756 461.968 421.567 461.562 421.537C461.001 421.898 460.4 422.323 459.757 422.81C459.107 423.278 458.45 423.727 457.784 424.156C457.111 424.565 456.437 424.915 455.761 425.205C455.103 425.484 454.468 425.626 453.857 425.632C453.245 425.638 452.681 425.455 452.164 425.084C451.656 424.683 451.228 424.036 450.88 423.143C450.471 422.095 450.278 421.041 450.302 419.98C450.337 418.889 450.527 417.832 450.872 416.807C451.209 415.764 451.651 414.762 452.197 413.803C452.753 412.812 453.339 411.9 453.955 411.065C454.464 410.907 454.979 410.879 455.5 410.98C456.022 411.081 456.506 411.254 456.953 411.501C456.997 412.007 456.881 412.495 456.604 412.965C456.345 413.423 456.013 413.892 455.608 414.372C455.221 414.84 454.812 415.335 454.38 415.857C453.948 416.378 453.586 416.939 453.295 417.54C453.013 418.111 452.835 418.748 452.759 419.453C452.676 420.138 452.798 420.898 453.123 421.732C453.366 422.353 453.684 422.719 454.078 422.829C454.471 422.94 454.919 422.906 455.419 422.729C455.912 422.533 456.444 422.238 457.014 421.846C457.577 421.435 458.144 421.008 458.717 420.566C459.307 420.113 459.891 419.7 460.469 419.327C461.039 418.935 461.586 418.679 462.109 418.56C462.625 418.422 463.086 418.453 463.493 418.652C463.917 418.84 464.269 419.293 464.549 420.011C464.67 420.322 464.73 420.782 464.726 421.391C464.741 421.989 464.7 422.671 464.605 423.437C464.519 424.172 464.373 424.947 464.165 425.762C463.974 426.565 463.738 427.336 463.457 428.076C463.186 428.786 462.88 429.433 462.539 430.017C462.207 430.571 461.849 430.972 461.463 431.221C461.096 431.458 460.794 431.471 460.558 431.258C460.339 431.035 460.173 430.778 460.059 430.487Z" fill="white"/>
<path d="M429.108 439.496C428.766 438.425 428.544 437.29 428.441 436.092C428.338 434.894 428.409 433.732 428.653 432.606C428.915 431.471 429.375 430.417 430.033 429.444C430.709 428.461 431.647 427.654 432.844 427.022C433.526 426.663 434.17 426.486 434.774 426.491C435.373 426.477 435.917 426.596 436.406 426.848C436.896 427.1 437.318 427.48 437.674 427.988C438.042 428.467 438.328 429.023 438.53 429.658C438.853 430.671 438.946 431.77 438.808 432.955C438.688 434.132 438.377 435.281 437.874 436.404C437.384 437.498 436.728 438.481 435.909 439.353C435.083 440.206 434.15 440.791 433.11 441.108C433.312 441.673 433.636 442.047 434.082 442.23C434.54 442.383 435.037 442.422 435.573 442.348C436.109 442.274 436.645 442.131 437.18 441.918C437.708 441.686 438.176 441.462 438.581 441.249C439.005 441.025 439.388 440.777 439.732 440.503C440.075 440.229 440.415 439.945 440.752 439.652C441.089 439.358 441.429 439.075 441.772 438.801C442.133 438.517 442.526 438.264 442.95 438.04C443.116 437.953 443.285 437.875 443.457 437.808C443.629 437.74 443.802 437.707 443.975 437.709C444.141 437.691 444.296 437.737 444.438 437.847C444.575 437.937 444.678 438.091 444.748 438.31C444.868 438.687 444.84 439.072 444.665 439.466C444.483 439.841 444.218 440.224 443.869 440.616C443.539 440.999 443.151 441.366 442.703 441.718C442.249 442.05 441.802 442.368 441.36 442.67C440.93 442.943 440.522 443.181 440.135 443.386C439.773 443.6 439.5 443.755 439.315 443.853C438.136 444.475 437.013 444.835 435.946 444.934C434.874 445.012 433.901 444.865 433.027 444.49C432.148 444.096 431.372 443.485 430.699 442.658C430.037 441.801 429.507 440.747 429.108 439.496ZM431.42 436.016C431.642 436.711 431.887 437.173 432.154 437.403C432.44 437.624 432.923 437.554 433.605 437.195C434.084 436.942 434.526 436.605 434.929 436.183C435.327 435.742 435.656 435.255 435.917 434.723C436.196 434.182 436.373 433.625 436.449 433.052C436.524 432.479 436.476 431.924 436.305 431.388C436.21 431.091 436.084 430.798 435.928 430.509C435.789 430.211 435.605 429.972 435.376 429.792C435.14 429.591 434.876 429.475 434.586 429.443C434.308 429.381 433.985 429.447 433.616 429.641C433.063 429.933 432.601 430.339 432.229 430.86C431.869 431.351 431.602 431.898 431.428 432.499C431.248 433.081 431.16 433.684 431.166 434.307C431.164 434.911 431.249 435.48 431.42 436.016Z" fill="white"/>
<path d="M411.623 439.711C411.606 439.651 411.602 439.596 411.61 439.547C411.599 439.507 411.594 439.453 411.596 439.384C411.644 439.249 411.721 439.066 411.828 438.836C411.935 438.606 412.007 438.482 412.045 438.464L417.753 435.843C417.692 435.622 417.566 435.284 417.375 434.828C417.184 434.372 416.979 433.867 416.761 433.311C416.561 432.746 416.384 432.148 416.23 431.517C416.07 430.866 415.987 430.259 415.98 429.697C415.986 429.105 416.096 428.579 416.31 428.119C416.537 427.63 416.934 427.255 417.502 426.994C418.066 429.021 418.651 430.586 419.256 431.689C419.862 432.792 420.474 433.574 421.094 434.037C421.732 434.49 422.364 434.687 422.987 434.627C423.611 434.567 424.214 434.392 424.795 434.102C425.39 433.784 425.949 433.414 426.472 432.992C426.995 432.571 427.466 432.23 427.885 431.97C428.322 431.701 428.696 431.586 429.006 431.625C429.31 431.643 429.54 431.934 429.696 432.496C429.814 432.917 429.803 433.262 429.664 433.529C429.543 433.788 429.242 434.085 428.758 434.421C428.613 434.51 428.368 434.668 428.025 434.893C427.696 435.09 427.319 435.308 426.894 435.548C426.47 435.789 426.02 436.052 425.545 436.338C425.064 436.604 424.611 436.858 424.187 437.098C423.762 437.338 423.373 437.551 423.019 437.736C422.659 437.901 422.394 438.023 422.224 438.101C422.252 438.201 422.29 438.376 422.338 438.626C422.386 438.875 422.421 439.04 422.444 439.121C422.689 440.004 423.062 440.806 423.561 441.527C424.055 442.229 424.568 442.921 425.099 443.605C425.65 444.28 426.172 444.968 426.666 445.669C427.16 446.371 427.53 447.163 427.775 448.046C427.82 448.206 427.849 448.386 427.861 448.584C427.887 448.753 427.872 448.93 427.816 449.114C427.774 449.269 427.676 449.416 427.522 449.554C427.393 449.704 427.173 449.794 426.861 449.824C426.086 449.954 425.426 449.77 424.882 449.273C424.357 448.767 423.884 448.102 423.462 447.277C423.035 446.432 422.651 445.51 422.31 444.513C421.968 443.515 421.608 442.605 421.23 441.783C420.866 440.932 420.464 440.256 420.026 439.756C419.582 439.235 419.048 439.039 418.422 439.169L412.573 440.361C412.497 440.396 412.361 440.368 412.165 440.277C411.963 440.166 411.832 440.079 411.772 440.016C411.742 439.985 411.719 439.939 411.702 439.878C411.672 439.847 411.646 439.791 411.623 439.711Z" fill="white"/>
<path d="M408.569 445.057C408.539 444.935 408.491 444.743 408.425 444.48C408.374 444.19 408.311 443.892 408.235 443.589C408.179 443.278 408.116 442.981 408.046 442.698C407.994 442.407 407.954 442.201 407.924 442.079C408.055 441.669 408.259 441.295 408.537 440.958C408.833 440.614 409.14 440.309 409.457 440.046C409.786 441.113 410.239 442.209 410.816 443.331C411.392 444.453 411.991 445.578 412.611 446.705C413.226 447.811 413.8 448.923 414.333 450.041C414.885 451.152 415.292 452.232 415.554 453.283C415.78 454.193 415.45 454.83 414.564 455.195C414.024 455.416 413.513 455.37 413.032 455.055C412.55 454.741 412.105 454.277 411.698 453.665C411.305 453.024 410.933 452.297 410.582 451.483C410.225 450.649 409.913 449.819 409.644 448.994C409.394 448.16 409.171 447.394 408.976 446.694C408.8 445.987 408.664 445.441 408.569 445.057ZM406.144 433.518C406.55 433.53 406.924 433.666 407.265 433.927C407.606 434.188 407.795 434.478 407.832 434.797C407.883 435.088 407.722 435.377 407.347 435.665C406.968 435.932 406.263 436.088 405.233 436.132C405.097 435.586 405.076 435.072 405.168 434.588C405.279 434.097 405.605 433.74 406.144 433.518Z" fill="white"/>
<path d="M395.232 448.546C395.191 448.363 395.16 448.176 395.138 447.986C395.112 447.776 395.112 447.588 395.139 447.424C395.161 447.24 395.219 447.075 395.314 446.93C395.428 446.778 395.602 446.658 395.836 446.571C396.032 446.499 396.283 446.582 396.59 446.82C396.913 447.031 397.256 447.333 397.619 447.727C397.978 448.1 398.338 448.528 398.701 449.011C399.082 449.486 399.416 449.934 399.701 450.357C400.001 450.752 400.249 451.101 400.444 451.403C400.638 451.705 400.748 451.863 400.772 451.876C400.866 451.07 400.976 450.193 401.102 449.243C401.227 448.294 401.435 447.381 401.724 446.502C402.029 445.597 402.439 444.784 402.955 444.065C403.49 443.338 404.216 442.804 405.134 442.464C405.603 442.29 406.061 442.208 406.508 442.219C406.969 442.202 407.391 442.288 407.772 442.477C408.168 442.639 408.509 442.886 408.796 443.22C409.082 443.555 409.285 443.986 409.403 444.514C409.504 444.962 409.399 445.342 409.088 445.655C408.797 445.961 408.437 446.194 408.007 446.353L407.714 446.462L406.16 445.618C406.121 445.632 406.089 445.633 406.065 445.62C406.026 445.634 405.987 445.649 405.948 445.663C405.924 445.65 405.892 445.651 405.853 445.666C405.169 445.919 404.678 446.321 404.378 446.873C404.094 447.397 403.92 447.989 403.857 448.651C403.789 449.293 403.799 449.95 403.887 450.622C403.989 451.267 404.099 451.853 404.218 452.382C404.309 452.788 404.442 453.191 404.616 453.589C404.785 453.966 404.964 454.34 405.153 454.71C405.338 455.06 405.517 455.434 405.691 455.832C405.86 456.21 405.995 456.622 406.095 457.07C406.287 457.923 405.943 458.513 405.064 458.839C404.576 459.02 404.009 458.944 403.363 458.611C402.712 458.258 402.029 457.762 401.315 457.124C400.62 456.479 399.926 455.745 399.234 454.923C398.537 454.081 397.906 453.247 397.34 452.422C396.774 451.597 396.296 450.838 395.908 450.145C395.54 449.445 395.314 448.912 395.232 448.546Z" fill="white"/>
<path d="M384.265 459.008C384.021 457.739 384.084 456.471 384.452 455.204C384.817 453.917 385.391 452.737 386.176 451.664C386.976 450.564 387.919 449.604 389.005 448.783C390.11 447.956 391.269 447.35 392.48 446.967C393.156 446.753 393.795 446.789 394.397 447.076C395.02 447.357 395.573 447.768 396.056 448.309C396.535 448.83 396.932 449.421 397.248 450.08C397.584 450.733 397.803 451.326 397.905 451.858C398.124 453.004 398.07 454.204 397.741 455.458C397.409 456.692 396.896 457.863 396.203 458.973C395.505 460.061 394.669 461.031 393.695 461.882C392.72 462.733 391.697 463.328 390.624 463.668C389.671 463.97 388.835 464.061 388.117 463.941C387.395 463.8 386.782 463.517 386.279 463.09C385.772 462.643 385.347 462.072 385.003 461.378C384.675 460.657 384.429 459.867 384.265 459.008ZM386.856 458.513C386.958 459.045 387.088 459.503 387.245 459.887C387.419 460.244 387.643 460.532 387.916 460.749C388.209 460.96 388.56 461.088 388.969 461.132C389.374 461.156 389.854 461.079 390.411 460.903C391.146 460.671 391.841 460.234 392.498 459.592C393.15 458.929 393.704 458.19 394.158 457.373C394.629 456.53 394.968 455.663 395.177 454.772C395.385 453.882 395.419 453.068 395.278 452.331C395.215 452.004 395.117 451.655 394.983 451.286C394.849 450.916 394.681 450.589 394.479 450.306C394.277 450.022 394.026 449.809 393.724 449.666C393.423 449.522 393.074 449.513 392.676 449.639C392.319 449.752 391.915 450.01 391.466 450.413C391.036 450.809 390.59 451.287 390.129 451.845C389.687 452.398 389.255 453.001 388.832 453.655C388.43 454.304 388.067 454.939 387.744 455.562C387.421 456.185 387.174 456.763 387.002 457.295C386.849 457.82 386.801 458.226 386.856 458.513Z" fill="white"/>
<path d="M369.48 452.593C369.542 452.062 369.668 451.794 369.855 451.787C370.063 451.775 370.343 451.949 370.694 452.307C371.044 452.665 371.448 453.159 371.905 453.79C372.382 454.415 372.889 455.096 373.426 455.834C373.959 456.552 374.527 457.282 375.127 458.024C375.748 458.762 376.367 459.424 376.986 460.013C377.624 460.595 378.263 461.049 378.902 461.375C379.561 461.695 380.2 461.817 380.818 461.741L381.208 448.329C381.193 447.969 381.313 447.734 381.569 447.624C381.841 447.488 382.108 447.386 382.37 447.317C383.277 447.08 383.799 447.393 383.936 448.257C384.008 448.71 384.082 449.44 384.158 450.449C384.234 451.458 384.276 452.583 384.284 453.824C384.289 455.044 384.26 456.316 384.197 457.64C384.131 458.943 383.998 460.157 383.799 461.281C383.599 462.405 383.31 463.359 382.931 464.144C382.572 464.924 382.11 465.388 381.546 465.536C380.72 465.753 379.859 465.689 378.965 465.345C378.068 464.98 377.184 464.44 376.315 463.724C375.463 462.983 374.645 462.126 373.86 461.153C373.096 460.175 372.403 459.178 371.78 458.162C371.174 457.121 370.667 456.107 370.259 455.121C369.85 454.135 369.591 453.293 369.48 452.593Z" fill="white"/>
<path d="M369.488 465.045C368.778 465.74 368.164 466.363 367.646 466.913C367.146 467.439 366.648 467.9 366.153 468.297C365.658 468.695 365.113 469.028 364.518 469.297C363.944 469.562 363.218 469.784 362.34 469.962C360.441 470.348 358.97 470.128 357.927 469.301C356.881 468.454 356.233 467.017 355.984 464.991C355.887 464.205 355.889 463.368 355.989 462.478C356.089 461.589 356.282 460.692 356.568 459.786C356.872 458.855 357.254 457.961 357.713 457.105C358.17 456.228 358.71 455.429 359.333 454.709C359.956 453.989 360.635 453.385 361.37 452.896C362.123 452.383 362.939 452.037 363.817 451.859C365.305 451.705 366.504 451.843 367.415 452.272C368.323 452.681 369.049 453.307 369.592 454.151C370.133 454.973 370.554 455.937 370.858 457.041C371.158 458.124 371.423 459.257 371.652 460.44C371.902 461.619 372.172 462.793 372.463 463.963C372.753 465.133 373.185 466.18 373.759 467.101C373.577 467.838 373.381 468.365 373.169 468.684C372.98 469.019 372.731 469.122 372.422 468.994C372.114 468.866 371.721 468.48 371.244 467.835C370.787 467.186 370.202 466.256 369.488 465.045ZM358.595 464.524C358.74 465.703 359.061 466.527 359.558 466.999C360.073 467.445 360.892 467.554 362.015 467.326C362.852 467.156 363.631 466.849 364.351 466.406C365.088 465.939 365.711 465.388 366.219 464.755C366.725 464.101 367.105 463.367 367.361 462.552C367.616 461.737 367.688 460.875 367.576 459.965C367.53 459.593 367.477 459.074 367.416 458.408C367.353 457.721 367.229 457.058 367.046 456.417C366.862 455.776 366.598 455.246 366.254 454.829C365.907 454.391 365.448 454.23 364.876 454.346C363.814 454.562 362.869 455.04 362.039 455.781C361.207 456.501 360.516 457.351 359.967 458.332C359.418 459.312 359.024 460.357 358.783 461.465C358.54 462.553 358.478 463.573 358.595 464.524Z" fill="white"/>
<path d="M352.018 475.317C351.518 474.567 350.95 473.626 350.313 472.495C349.696 471.341 349.055 470.147 348.389 468.915C347.722 467.663 347.026 466.445 346.302 465.263C345.599 464.079 344.899 463.061 344.203 462.212C343.94 462.059 343.59 461.991 343.153 462.009C342.716 462.026 342.261 462.078 341.788 462.164C341.313 462.228 340.837 462.283 340.361 462.327C339.903 462.347 339.491 462.288 339.125 462.149C338.779 462.007 338.508 461.751 338.31 461.379C338.112 461.007 338.034 460.44 338.075 459.678L343.277 458.968C343.284 457.791 343.364 456.615 343.518 455.439C343.671 454.263 343.911 453.128 344.238 452.034C344.586 450.937 345.022 449.901 345.547 448.926C346.072 447.952 346.731 447.085 347.524 446.325C348.317 445.566 349.245 444.925 350.308 444.402C351.392 443.876 352.636 443.517 354.039 443.326C354.535 443.258 355.04 443.315 355.556 443.496C356.071 443.657 356.54 443.908 356.965 444.249C357.39 444.59 357.736 444.994 358.004 445.461C358.293 445.926 358.458 446.407 358.5 446.905C358.107 446.959 357.75 446.934 357.429 446.831C357.105 446.707 356.792 446.572 356.487 446.424C356.181 446.256 355.856 446.111 355.512 445.99C355.166 445.849 354.787 445.806 354.374 445.862C353.136 446.032 352 446.439 350.968 447.083C349.957 447.725 349.083 448.517 348.346 449.457C347.63 450.395 347.091 451.445 346.728 452.607C346.365 453.77 346.234 454.963 346.335 456.188C346.342 456.271 346.355 456.427 346.374 456.655C346.411 456.86 346.441 457.087 346.461 457.336C346.482 457.586 346.502 457.824 346.52 458.053C346.56 458.278 346.583 458.433 346.59 458.516C347.374 458.661 348.246 458.73 349.206 458.725C350.166 458.72 351.123 458.674 352.075 458.585C353.047 458.474 353.975 458.337 354.86 458.174C355.764 458.008 356.565 457.846 357.262 457.688C357.329 457.742 357.452 457.841 357.631 457.984C357.81 458.128 357.913 458.24 357.94 458.32C357.945 458.382 357.959 458.422 357.981 458.44C358.033 458.559 358.059 458.619 358.059 458.619C358.095 459.055 357.896 459.428 357.463 459.74C357.029 460.051 356.467 460.316 355.775 460.537C355.082 460.737 354.303 460.916 353.44 461.076C352.597 461.233 351.775 461.388 350.973 461.539C350.191 461.667 349.482 461.806 348.847 461.955C348.231 462.081 347.806 462.234 347.57 462.413C347.941 463.622 348.515 464.762 349.293 465.831C350.091 466.898 350.899 467.964 351.718 469.028C352.536 470.092 353.273 471.178 353.928 472.285C354.583 473.392 354.962 474.569 355.065 475.815C354.983 475.826 354.787 475.853 354.477 475.895C354.19 475.955 353.879 475.987 353.546 475.991C353.212 475.994 352.884 475.944 352.563 475.841C352.263 475.756 352.082 475.582 352.018 475.317Z" fill="white"/>
<path d="M314.127 462.333C314.124 462.145 314.131 461.957 314.148 461.769C314.165 461.56 314.203 461.382 314.263 461.234C314.323 461.066 314.414 460.927 314.537 460.819C314.681 460.711 314.877 460.653 315.127 460.645C315.336 460.639 315.568 460.798 315.824 461.124C316.1 461.428 316.378 461.826 316.658 462.318C316.938 462.789 317.208 463.312 317.469 463.887C317.75 464.462 317.989 464.997 318.186 465.491C318.403 465.964 318.577 466.376 318.709 466.726C318.84 467.076 318.917 467.261 318.938 467.282C319.195 466.544 319.482 465.743 319.8 464.879C320.117 464.015 320.509 463.211 320.974 462.468C321.46 461.702 322.032 461.06 322.689 460.54C323.367 460.019 324.195 459.743 325.174 459.713C325.673 459.698 326.143 459.767 326.584 459.921C327.045 460.052 327.445 460.269 327.783 460.572C328.143 460.853 328.431 461.198 328.646 461.608C328.862 462.019 328.975 462.494 328.985 463.036C328.994 463.494 328.812 463.823 328.441 464.022C328.09 464.22 327.686 464.326 327.228 464.34L326.916 464.35L325.548 463.047C325.506 463.048 325.475 463.039 325.453 463.019C325.412 463.02 325.37 463.021 325.328 463.023C325.307 463.002 325.276 462.993 325.234 462.994C324.505 463.016 323.937 463.242 323.528 463.671C323.139 464.079 322.847 464.588 322.65 465.199C322.452 465.788 322.328 466.417 322.278 467.086C322.248 467.733 322.239 468.327 322.249 468.869C322.256 469.285 322.306 469.711 322.397 470.146C322.488 470.56 322.59 470.974 322.701 471.387C322.813 471.78 322.914 472.193 323.006 472.628C323.097 473.042 323.146 473.479 323.155 473.937C323.171 474.812 322.71 475.263 321.773 475.292C321.253 475.308 320.706 475.054 320.134 474.529C319.562 473.984 318.986 473.293 318.408 472.456C317.851 471.618 317.313 470.697 316.795 469.692C316.276 468.665 315.82 467.668 315.427 466.701C315.034 465.733 314.715 464.857 314.472 464.073C314.249 463.288 314.134 462.707 314.127 462.333Z" fill="white"/>
<path d="M301.539 462.51C301.541 462.385 301.543 462.166 301.547 461.854C301.572 461.521 301.587 461.177 301.591 460.823C301.595 460.469 301.599 460.146 301.603 459.855C301.627 459.542 301.64 459.324 301.642 459.199C301.791 458.952 301.96 458.716 302.151 458.49C302.362 458.245 302.572 458.082 302.781 458.003C303.012 457.903 303.252 457.887 303.501 457.955C303.771 458.023 304.039 458.237 304.306 458.596L304.303 458.846L304.298 459.252C304.275 459.356 304.231 459.605 304.163 460C304.096 460.373 304.018 460.789 303.93 461.245C303.841 461.702 303.752 462.127 303.664 462.521C303.597 462.895 303.563 463.134 303.562 463.238C303.557 463.634 303.592 464.135 303.668 464.741C303.745 465.326 303.852 465.942 303.99 466.591C304.148 467.24 304.338 467.89 304.56 468.54C304.802 469.191 305.086 469.78 305.413 470.308C305.74 470.815 306.1 471.238 306.492 471.58C306.904 471.921 307.381 472.098 307.923 472.109C308.589 472.122 309.175 471.957 309.679 471.612C310.204 471.269 310.657 470.82 311.039 470.265C311.421 469.71 311.73 469.08 311.968 468.377C312.227 467.673 312.433 466.969 312.588 466.264C312.742 465.538 312.855 464.842 312.926 464.176C312.996 463.511 313.035 462.928 313.041 462.428C313.047 461.928 313.011 461.459 312.933 461.02C312.876 460.56 312.798 460.111 312.699 459.671C312.6 459.232 312.512 458.803 312.433 458.384C312.376 457.946 312.35 457.507 312.356 457.07C312.361 456.674 312.499 456.396 312.772 456.235C313.066 456.074 313.39 455.997 313.744 456.004C314.181 456.013 314.534 456.155 314.801 456.432C315.069 456.687 315.273 457.014 315.414 457.413C315.576 457.812 315.675 458.272 315.71 458.794C315.766 459.295 315.791 459.796 315.785 460.296C315.779 460.796 315.763 461.275 315.737 461.732C315.711 462.17 315.696 462.523 315.693 462.794C315.684 463.503 315.622 464.304 315.507 465.197C315.392 466.091 315.193 467.014 314.911 467.967C314.649 468.899 314.315 469.82 313.908 470.729C313.522 471.638 313.044 472.451 312.472 473.169C311.922 473.866 311.28 474.426 310.546 474.849C309.832 475.272 309.028 475.475 308.132 475.457C307.195 475.438 306.375 475.203 305.672 474.751C304.969 474.279 304.372 473.673 303.881 472.934C303.411 472.174 303.015 471.322 302.693 470.378C302.372 469.434 302.123 468.491 301.947 467.55C301.791 466.609 301.677 465.701 301.605 464.824C301.553 463.927 301.531 463.156 301.539 462.51Z" fill="white"/>
<path d="M288.681 468.093C288.737 466.803 289.089 465.627 289.739 464.567C290.39 463.485 291.221 462.584 292.231 461.862C293.264 461.121 294.403 460.565 295.649 460.194C296.915 459.825 298.182 459.685 299.45 459.775C300.156 459.825 300.77 460.098 301.291 460.594C301.832 461.092 302.276 461.687 302.621 462.38C302.967 463.051 303.219 463.758 303.374 464.5C303.551 465.243 303.628 465.885 303.604 466.426C303.554 467.592 303.225 468.706 302.617 469.77C302.009 470.812 301.24 471.729 300.31 472.519C299.381 473.288 298.344 473.893 297.199 474.334C296.055 474.775 294.921 474.955 293.799 474.876C292.802 474.805 291.967 474.579 291.296 474.197C290.625 473.795 290.094 473.298 289.703 472.706C289.312 472.094 289.029 471.396 288.855 470.611C288.701 469.806 288.644 468.967 288.681 468.093ZM291.317 468.593C291.294 469.134 291.315 469.616 291.38 470.038C291.467 470.441 291.619 470.796 291.835 471.104C292.072 471.413 292.384 471.665 292.772 471.859C293.16 472.033 293.646 472.14 294.227 472.182C294.996 472.236 295.774 472.082 296.561 471.721C297.349 471.338 298.058 470.845 298.688 470.243C299.34 469.621 299.87 468.928 300.278 468.164C300.686 467.399 300.906 466.642 300.938 465.893C300.953 465.56 300.937 465.193 300.892 464.794C300.846 464.394 300.758 464.022 300.627 463.679C300.496 463.335 300.3 463.04 300.04 462.792C299.779 462.543 299.441 462.405 299.026 462.375C298.652 462.349 298.199 462.442 297.669 462.655C297.16 462.869 296.616 463.154 296.038 463.51C295.481 463.867 294.921 464.276 294.359 464.738C293.818 465.2 293.319 465.666 292.861 466.135C292.403 466.603 292.029 467.057 291.74 467.496C291.471 467.936 291.33 468.302 291.317 468.593Z" fill="white"/>
<path d="M276.618 456.861C276.632 456.674 276.645 456.487 276.659 456.3C276.695 456.094 276.75 455.912 276.824 455.754C276.92 455.577 277.034 455.454 277.164 455.386C277.316 455.3 277.527 455.273 277.796 455.305C277.816 455.308 277.837 455.31 277.858 455.313C277.899 455.318 277.941 455.323 277.982 455.328C278.042 455.356 278.093 455.373 278.135 455.378C278.488 455.965 278.779 456.703 279.006 457.589C279.235 458.456 279.448 459.383 279.647 460.371C279.848 461.339 280.067 462.329 280.306 463.343C280.547 464.337 280.887 465.248 281.327 466.076C281.767 466.905 282.332 467.592 283.023 468.137C283.713 468.681 284.599 468.987 285.679 469.055C286.154 469.112 286.484 468.89 286.666 468.388C286.849 467.886 286.97 467.23 287.029 466.42C287.109 465.612 287.154 464.716 287.164 463.732C287.194 462.75 287.261 461.826 287.366 460.958C287.494 460.072 287.706 459.312 288.003 458.677C288.32 458.044 288.808 457.653 289.466 457.502C289.695 458.074 289.85 458.953 289.93 460.136C290.033 461.301 290.07 462.647 290.042 464.174C290.015 465.68 289.937 467.316 289.808 469.082C289.68 470.828 289.511 472.568 289.301 474.303C289.092 476.018 288.846 477.665 288.564 479.245C288.281 480.825 287.992 482.205 287.697 483.385C287.402 484.565 287.085 485.481 286.745 486.131C286.425 486.805 286.113 487.071 285.811 486.93C285.407 486.462 285.105 485.881 284.905 485.186C284.727 484.493 284.615 483.736 284.571 482.913C284.547 482.092 284.579 481.226 284.667 480.315C284.753 479.424 284.85 478.524 284.959 477.614C285.087 476.708 285.215 475.822 285.341 474.957C285.487 474.094 285.587 473.299 285.64 472.572C284.891 472.544 284.134 472.337 283.37 471.951C282.626 471.568 281.903 471.03 281.203 470.338C280.504 469.624 279.845 468.79 279.226 467.835C278.628 466.882 278.111 465.824 277.675 464.66C277.259 463.499 276.953 462.267 276.756 460.965C276.56 459.642 276.514 458.274 276.618 456.861Z" fill="white"/>
<path d="M251.454 457.819C251.526 457.282 251.709 456.929 252.004 456.76C252.301 456.571 252.745 456.541 253.335 456.672L253.64 456.739C253.657 457.083 253.677 457.481 253.701 457.933C253.724 458.384 253.787 458.855 253.888 459.345C253.99 459.836 254.127 460.302 254.298 460.743C254.472 461.165 254.707 461.525 255.002 461.824C255.119 461.106 255.384 460.452 255.798 459.863C256.235 459.258 256.733 458.752 257.29 458.343C257.87 457.919 258.479 457.596 259.116 457.376C259.776 457.139 260.409 457.024 261.016 457.03L261.687 457.179C262.663 457.394 263.467 457.806 264.098 458.413C264.731 459 265.224 459.704 265.574 460.525C265.948 461.331 266.197 462.215 266.319 463.177C266.442 464.14 266.5 465.109 266.495 466.086C266.513 467.047 266.473 467.974 266.375 468.866C266.299 469.742 266.22 470.49 266.137 471.11L263.91 470.617C263.954 469.351 263.96 468.13 263.929 466.954C263.929 466.486 263.911 465.993 263.875 465.475C263.843 464.937 263.794 464.437 263.73 463.976C263.669 463.495 263.592 463.053 263.499 462.65C263.41 462.226 263.291 461.86 263.144 461.551C263.074 461.45 262.977 461.312 262.854 461.136C262.751 460.964 262.638 460.79 262.515 460.614C262.392 460.438 262.276 460.285 262.168 460.155C262.06 460.025 261.996 459.957 261.975 459.953C261.387 459.653 260.842 459.66 260.339 459.974C259.839 460.267 259.37 460.717 258.933 461.322C258.496 461.927 258.108 462.638 257.768 463.456C257.449 464.278 257.164 465.076 256.914 465.85C256.666 466.603 256.472 467.272 256.331 467.858C256.192 468.422 256.105 468.764 256.068 468.884C255.51 469.143 255.016 469.151 254.588 468.908C254.163 468.643 253.78 468.219 253.439 467.633C253.119 467.052 252.846 466.354 252.62 465.539C252.414 464.728 252.234 463.88 252.081 462.996C251.929 462.091 251.799 461.19 251.688 460.294C251.598 459.402 251.52 458.577 251.454 457.819Z" fill="white"/>
<path d="M233.341 449.928C233.402 449.58 233.528 449.282 233.718 449.035C233.928 448.794 234.224 448.729 234.604 448.839C234.624 448.844 234.652 448.863 234.689 448.895C234.729 448.907 234.769 448.918 234.809 448.93C234.849 448.942 234.889 448.953 234.929 448.965C234.982 449.023 235.074 449.158 235.205 449.368C235.356 449.584 235.445 449.739 235.471 449.833C235.509 449.974 235.582 450.275 235.691 450.738C235.819 451.206 235.965 451.755 236.128 452.384C236.315 452.999 236.494 453.654 236.667 454.351C236.862 455.033 237.042 455.689 237.205 456.318C237.388 456.953 237.534 457.502 237.642 457.964C237.774 458.412 237.869 458.709 237.928 458.855C237.937 458.923 238.006 459.072 238.133 459.303C238.285 459.519 238.397 459.659 238.47 459.724C238.68 459.483 238.916 459.098 239.176 458.57C239.437 458.042 239.707 457.462 239.985 456.831C240.288 456.185 240.592 455.53 240.898 454.863C241.207 454.177 241.522 453.578 241.843 453.067C242.187 452.541 242.532 452.134 242.877 451.846C243.225 451.537 243.58 451.435 243.94 451.539C244.46 451.69 244.915 452.037 245.303 452.58C245.712 453.13 246.068 453.793 246.374 454.572C246.699 455.356 246.98 456.213 247.216 457.144C247.476 458.06 247.707 458.968 247.907 459.866C248.13 460.75 248.333 461.574 248.515 462.338C248.72 463.088 248.938 463.701 249.17 464.177C249.425 464.165 249.661 464.017 249.878 463.735C250.096 463.453 250.275 463.15 250.417 462.824C250.581 462.483 250.711 462.165 250.805 461.869C250.902 461.552 250.97 461.345 251.008 461.248C251.067 461.029 251.158 460.688 251.281 460.228C251.407 459.747 251.544 459.205 251.692 458.6C251.86 458.002 252.022 457.381 252.177 456.735C252.332 456.09 252.483 455.466 252.631 454.862C252.799 454.263 252.934 453.731 253.037 453.265C253.163 452.784 253.244 452.441 253.28 452.236C253.32 452.247 253.422 452.266 253.586 452.292C253.753 452.297 253.866 452.308 253.927 452.326C254.207 452.407 254.451 452.51 254.661 452.635C254.87 452.76 255.003 453.025 255.058 453.429C255.033 453.573 254.988 453.829 254.923 454.199C254.879 454.574 254.818 454.977 254.743 455.408C254.691 455.824 254.631 456.227 254.563 456.617C254.518 456.992 254.483 457.252 254.458 457.395C254.401 457.724 254.311 458.237 254.189 458.934C254.09 459.617 253.947 460.374 253.76 461.204C253.592 462.039 253.381 462.884 253.127 463.737C252.876 464.57 252.576 465.324 252.226 465.999C251.9 466.66 251.516 467.174 251.073 467.541C250.634 467.889 250.144 467.984 249.603 467.828C248.983 467.648 248.43 467.327 247.943 466.862C247.457 466.398 247.018 465.84 246.628 465.188C246.257 464.542 245.916 463.85 245.603 463.113C245.294 462.355 245.016 461.606 244.767 460.866C244.542 460.111 244.329 459.403 244.13 458.741C243.954 458.065 243.792 457.49 243.643 457.016C243.418 457.339 243.188 457.757 242.95 458.271C242.733 458.79 242.487 459.355 242.212 459.965C241.941 460.555 241.647 461.15 241.332 461.748C241.021 462.327 240.688 462.845 240.334 463.303C240.004 463.747 239.641 464.083 239.243 464.313C238.865 464.549 238.466 464.606 238.046 464.485C237.846 464.427 237.664 464.385 237.5 464.359C237.34 464.313 237.192 464.259 237.055 464.198C236.922 464.116 236.805 464.007 236.703 463.87C236.601 463.732 236.519 463.536 236.459 463.282L233.293 450.561C233.297 450.541 233.301 450.456 233.306 450.306C233.315 450.137 233.326 450.011 233.341 449.928Z" fill="white"/>
<path d="M220.134 452.734C220.406 451.471 220.942 450.401 221.744 449.524C222.55 448.627 223.498 447.955 224.587 447.51C225.7 447.05 226.884 446.803 228.139 446.766C229.413 446.737 230.649 446.936 231.846 447.361C232.513 447.599 233.054 448.032 233.468 448.662C233.901 449.298 234.225 450.005 234.438 450.783C234.655 451.54 234.775 452.306 234.799 453.082C234.841 453.864 234.806 454.52 234.692 455.05C234.446 456.19 233.942 457.206 233.18 458.097C232.422 458.968 231.531 459.67 230.507 460.205C229.488 460.72 228.393 461.043 227.224 461.175C226.054 461.308 224.939 461.185 223.879 460.808C222.937 460.473 222.177 460.027 221.6 459.471C221.026 458.895 220.603 458.262 220.329 457.572C220.059 456.862 219.907 456.096 219.873 455.272C219.863 454.435 219.95 453.589 220.134 452.734ZM222.571 453.93C222.457 454.459 222.395 454.941 222.386 455.377C222.401 455.799 222.486 456.19 222.64 456.552C222.814 456.921 223.07 457.254 223.408 457.549C223.75 457.824 224.196 458.06 224.746 458.255C225.472 458.513 226.242 458.568 227.056 458.419C227.875 458.25 228.636 457.95 229.342 457.521C230.071 457.079 230.695 456.534 231.215 455.886C231.735 455.237 232.074 454.547 232.232 453.813C232.302 453.487 232.349 453.121 232.374 452.713C232.398 452.305 232.377 451.913 232.31 451.539C232.242 451.164 232.105 450.819 231.898 450.504C231.691 450.19 231.392 449.962 230.999 449.823C230.646 449.697 230.197 449.669 229.654 449.739C229.13 449.816 228.562 449.954 227.948 450.152C227.355 450.358 226.75 450.614 226.135 450.921C225.539 451.236 224.982 451.564 224.465 451.906C223.947 452.248 223.513 452.598 223.161 452.955C222.829 453.32 222.632 453.644 222.571 453.93Z" fill="white"/>
<path d="M205.596 449.842C205.889 448.67 206.429 447.744 207.214 447.065C208 446.387 208.891 445.885 209.885 445.56C210.885 445.215 211.925 445.009 213.004 444.942C214.088 444.855 215.082 444.831 215.985 444.87C216.894 444.889 217.651 444.923 218.254 444.971C218.863 445 219.183 444.954 219.213 444.833C219.39 444.125 219.524 443.422 219.613 442.723C219.728 442.012 219.832 441.297 219.927 440.578C220.022 439.859 220.114 439.15 220.204 438.452C220.318 437.741 220.459 437.052 220.626 436.385L221.119 434.414C221.984 434.437 222.535 434.698 222.771 435.197C223.027 435.704 222.928 436.355 222.474 437.149C222.44 437.625 222.371 438.366 222.268 439.372C222.166 440.377 222.042 441.508 221.898 442.764C221.773 444.028 221.632 445.353 221.477 446.738C221.341 448.131 221.198 449.466 221.049 450.742C220.924 452.006 220.8 453.137 220.678 454.135C220.561 455.112 220.473 455.845 220.415 456.334C220.409 456.443 220.377 456.653 220.321 456.964C220.269 457.255 220.201 457.572 220.115 457.916C220.053 458.247 219.987 458.555 219.916 458.837C219.864 459.128 219.824 459.334 219.793 459.456C219.062 459.153 218.569 458.916 218.314 458.744C218.079 458.58 217.946 458.391 217.914 458.177C217.902 457.972 217.939 457.697 218.025 457.353C218.111 457.01 218.133 456.495 218.092 455.809C217.233 456.101 216.438 456.307 215.707 456.429C214.975 456.55 214.261 456.601 213.565 456.581C212.874 456.541 212.191 456.426 211.517 456.236C210.856 456.074 210.16 455.842 209.428 455.54C208.812 455.285 208.228 454.988 207.675 454.648C207.147 454.296 206.697 453.887 206.325 453.422C205.953 452.956 205.693 452.424 205.545 451.828C205.397 451.231 205.414 450.569 205.596 449.842ZM208.268 450.244C208.187 450.567 208.188 450.858 208.273 451.115C208.357 451.373 208.487 451.617 208.664 451.846C208.84 452.075 209.036 452.267 209.252 452.423C209.492 452.567 209.728 452.687 209.959 452.782C210.633 453.061 211.388 453.228 212.223 453.283C213.084 453.327 213.902 453.241 214.678 453.027C215.478 452.8 216.176 452.43 216.771 451.918C217.386 451.414 217.795 450.758 217.997 449.949C218.154 449.323 218.156 448.845 218.005 448.515C217.854 448.184 217.48 447.896 216.883 447.649C216.267 447.395 215.507 447.248 214.604 447.209C213.719 447.178 212.828 447.256 211.932 447.443C211.055 447.638 210.27 447.971 209.578 448.444C208.892 448.896 208.455 449.496 208.268 450.244Z" fill="white"/>
<path d="M183.448 425.893C183.467 425.833 183.492 425.788 183.523 425.759C183.536 425.719 183.561 425.674 183.599 425.625C183.704 425.565 183.856 425.494 184.054 425.414C184.253 425.334 184.37 425.303 184.407 425.323L189.952 428.274C190.022 428.056 190.106 427.694 190.204 427.189C190.302 426.684 190.417 426.129 190.547 425.525C190.695 424.93 190.878 424.33 191.094 423.725C191.317 423.1 191.573 422.574 191.861 422.147C192.174 421.71 192.529 421.411 192.926 421.25C193.347 421.08 193.833 421.141 194.385 421.435C193.74 423.438 193.351 425.112 193.219 426.459C193.087 427.806 193.127 428.919 193.339 429.798C193.569 430.687 193.928 431.378 194.416 431.87C194.904 432.362 195.436 432.75 196.013 433.033C196.614 433.307 197.216 433.511 197.819 433.646C198.422 433.781 198.944 433.932 199.386 434.097C199.847 434.273 200.18 434.508 200.387 434.804C200.599 435.08 200.616 435.495 200.437 436.05C200.303 436.467 200.115 436.715 199.874 436.796C199.651 436.886 199.275 436.849 198.747 436.684C198.593 436.625 198.332 436.533 197.964 436.406C197.62 436.27 197.23 436.109 196.794 435.923C196.359 435.738 195.892 435.548 195.395 435.353C194.904 435.138 194.44 434.938 194.005 434.752C193.569 434.567 193.173 434.391 192.817 434.225C192.468 434.039 192.21 433.902 192.045 433.814C192.013 433.913 191.949 434.076 191.854 434.305C191.759 434.533 191.699 434.686 191.673 434.766C191.392 435.638 191.246 436.559 191.235 437.529C191.231 438.479 191.245 439.439 191.277 440.409C191.328 441.388 191.351 442.353 191.346 443.303C191.342 444.253 191.199 445.164 190.918 446.037C190.867 446.195 190.794 446.354 190.7 446.513C190.63 446.662 190.527 446.781 190.391 446.871C190.279 446.951 190.131 446.977 189.946 446.948C189.773 446.949 189.565 446.827 189.321 446.581C188.686 446.01 188.299 445.305 188.161 444.465C188.04 443.634 188.041 442.729 188.163 441.748C188.292 440.748 188.491 439.727 188.762 438.687C189.033 437.646 189.244 436.655 189.397 435.714C189.574 434.763 189.633 433.912 189.573 433.16C189.52 432.388 189.231 431.782 188.706 431.339L183.803 427.197C183.73 427.158 183.645 427.02 183.549 426.783C183.459 426.526 183.409 426.348 183.397 426.249C183.392 426.2 183.399 426.145 183.418 426.086C183.412 426.036 183.422 425.972 183.448 425.893Z" fill="white"/>
<path d="M169.298 428.38C169.739 427.166 170.407 426.196 171.302 425.469C172.205 424.723 173.211 424.23 174.321 423.99C175.456 423.741 176.628 423.717 177.839 423.919C179.067 424.132 180.226 424.565 181.315 425.22C181.923 425.584 182.38 426.121 182.688 426.831C183.014 427.551 183.223 428.321 183.317 429.141C183.418 429.941 183.424 430.732 183.336 431.513C183.265 432.306 183.138 432.957 182.953 433.466C182.554 434.562 181.925 435.485 181.066 436.233C180.213 436.962 179.257 437.497 178.197 437.838C177.145 438.16 176.047 438.277 174.905 438.187C173.762 438.097 172.709 437.763 171.744 437.184C170.887 436.669 170.221 436.078 169.745 435.411C169.277 434.724 168.96 434.009 168.795 433.266C168.637 432.503 168.6 431.706 168.685 430.874C168.795 430.034 168.999 429.202 169.298 428.38ZM171.468 430.041C171.283 430.55 171.155 431.022 171.084 431.456C171.039 431.882 171.064 432.291 171.161 432.683C171.276 433.086 171.474 433.467 171.757 433.828C172.046 434.169 172.441 434.489 172.941 434.79C173.602 435.186 174.334 435.387 175.137 435.393C175.947 435.378 176.722 435.223 177.46 434.927C178.224 434.622 178.902 434.194 179.494 433.643C180.086 433.092 180.51 432.464 180.766 431.759C180.88 431.446 180.978 431.087 181.059 430.683C181.141 430.279 181.176 429.883 181.165 429.494C181.154 429.106 181.071 428.734 180.917 428.38C180.763 428.025 180.508 427.74 180.151 427.526C179.829 427.333 179.402 427.22 178.87 427.186C178.356 427.164 177.791 427.194 177.173 427.277C176.574 427.37 175.956 427.512 175.321 427.703C174.704 427.905 174.122 428.128 173.576 428.373C173.03 428.617 172.563 428.885 172.174 429.177C171.803 429.479 171.568 429.767 171.468 430.041Z" fill="white"/>
<path d="M157.855 426.254C158.067 425.733 158.346 425.479 158.694 425.491C159.049 425.484 159.442 425.6 159.873 425.84C160.329 426.073 160.799 426.352 161.283 426.677C161.775 426.983 162.264 427.188 162.75 427.293C163.253 427.41 163.725 427.358 164.166 427.139C164.608 426.92 165.001 426.385 165.346 425.536C166.327 423.124 167.03 421.016 167.455 419.213C167.897 417.421 167.959 415.805 167.642 414.364C167.343 412.934 166.641 411.628 165.537 410.444C164.45 409.272 162.877 408.105 160.817 406.943C160.773 406.889 160.714 406.763 160.64 406.566C160.584 406.381 160.522 406.18 160.456 405.963C160.39 405.747 160.328 405.546 160.272 405.361C160.24 405.167 160.219 405.03 160.208 404.949C160.206 404.899 160.213 404.855 160.229 404.816C160.235 404.746 160.254 404.673 160.285 404.596C160.301 404.557 160.329 404.515 160.37 404.469C160.386 404.43 160.41 404.397 160.443 404.37C160.519 404.347 160.615 404.326 160.733 404.307C160.868 404.299 161.008 404.307 161.153 404.331C161.322 404.346 161.458 404.364 161.561 404.384C161.688 404.395 161.777 404.419 161.829 404.453C162.166 404.655 162.671 404.957 163.343 405.36C164.034 405.774 164.81 406.246 165.674 406.777C166.545 407.288 167.476 407.84 168.468 408.432C169.478 409.037 170.474 409.644 171.459 410.256C172.468 410.86 173.418 411.449 174.308 412.022C175.215 412.607 176.023 413.137 176.732 413.613C176.489 414.211 176.197 414.605 175.856 414.794C175.523 414.963 175.165 415.03 174.783 414.995C174.427 414.952 174.051 414.847 173.656 414.68C173.279 414.525 172.907 414.411 172.541 414.337C172.2 414.255 171.871 414.28 171.553 414.41C171.244 414.522 170.987 414.829 170.783 415.33C170.375 416.334 170.065 417.367 169.854 418.429C169.66 419.502 169.483 420.587 169.323 421.684C169.172 422.761 168.99 423.831 168.779 424.892C168.584 425.966 168.291 426.985 167.899 427.95C167.546 428.819 167.051 429.494 166.415 429.976C165.779 430.457 165.069 430.767 164.287 430.905C163.522 431.054 162.722 431.045 161.887 430.878C161.077 430.703 160.327 430.383 159.635 429.919C159.358 429.733 159.076 429.506 158.788 429.239C158.518 428.984 158.284 428.692 158.087 428.364C157.916 428.027 157.791 427.685 157.712 427.337C157.658 426.982 157.706 426.621 157.855 426.254Z" fill="white"/>
</g>
<rect x="1.5" y="1.5" width="639" height="639" rx="11.5" stroke="#CCCCCC"/>
</g>
<defs>
<filter id="filter0_d_9_13" x="0.9" y="0.9" width="640.2" height="640.2" filterUnits="userSpaceOnUse" color-interpolation-filters="sRGB">
<feFlood flood-opacity="0" result="BackgroundImageFix"/>
<feColorMatrix in="SourceAlpha" type="matrix" values="0 0 0 0 0 0 0 0 0 0 0 0 0 0 0 0 0 0 127 0" result="hardAlpha"/>
<feMorphology radius="0.1" operator="dilate" in="SourceAlpha" result="effect1_dropShadow_9_13"/>
<feOffset/>
<feComposite in2="hardAlpha" operator="out"/>
<feColorMatrix type="matrix" values="0 0 0 0 0 0 0 0 0 0 0 0 0 0 0 0 0 0 0.25 0"/>
<feBlend mode="normal" in2="BackgroundImageFix" result="effect1_dropShadow_9_13"/>
<feBlend mode="normal" in="SourceGraphic" in2="effect1_dropShadow_9_13" result="shape"/>
</filter>
<clipPath id="clip0_9_13">
<rect x="1" y="1" width="640" height="640" rx="12" fill="white"/>
</clipPath>
</defs>
</svg>
